<svg xmlns="http://www.w3.org/2000/svg" width="1000" height="620">
<style>rect{fill:#eefafa;stroke:#007175;stroke-width:2} text{font-family:Arial;font-size:22px} .h{font-weight:bold;fill:#007175}.line{stroke:#444;stroke-width:2;marker-end:url(#a)}</style>
<defs><marker id="a" markerWidth="10" markerHeight="10" refX="9" refY="3" orient="auto"><path d="M0,0 L0,6 L9,3 z" fill="#444"/></marker></defs>
<text x="320" y="40" class="h">Схема подключений шкафа управления</text>
<rect x="60" y="120" width="210" height="90" rx="12"/><text x="95" y="170">Питание 220В</text>
<rect x="390" y="120" width="230" height="90" rx="12"/><text x="430" y="170">ИБП</text>
<rect x="730" y="120" width="210" height="90" rx="12"/><text x="765" y="170">Шкаф управления</text>
<rect x="390" y="310" width="230" height="90" rx="12"/><text x="425" y="360">Контроллер</text>
<rect x="60" y="310" width="210" height="90" rx="12"/><text x="95" y="360">Датчики</text>
<rect x="730" y="310" width="210" height="90" rx="12"/><text x="760" y="360">Исполнительные устройства</text>
<line class="line" x1="270" y1="165" x2="390" y2="165"/><line class="line" x1="620" y1="165" x2="730" y2="165"/>
<line class="line" x1="505" y1="210" x2="505" y2="310"/><line class="line" x1="270" y1="355" x2="390" y2="355"/><line class="line" x1="620" y1="355" x2="730" y2="355"/>
</svg>